<?xml version="1.0" standalone="yes"?>

<svg version="1.1" viewBox="0.0 0.0 215.0 215.0" fill="none" stroke="none" stroke-linecap="square" stroke-miterlimit="10" xmlns="http://www.w3.org/2000/svg" xmlns:xlink="http://www.w3.org/1999/xlink"><clipPath id="p.0"><path d="m0 0l215.0 0l0 215.0l-215.0 0l0 -215.0z" clip-rule="nonzero"></path></clipPath><g clip-path="url(#p.0)"><path fill="#000000" fill-opacity="0.0" d="m0 0l215.0 0l0 215.0l-215.0 0z" fill-rule="evenodd"></path><defs><linearGradient id="p.1" gradientUnits="userSpaceOnUse" gradientTransform="matrix(15.27086679116337 0.0 0.0 15.27086679116337 0.0 0.0)" spreadMethod="pad" x1="14.556047643317505" y1="14.536103492623965" x2="14.556215489465536" y2="-0.7347632976169836"><stop offset="0.0" stop-color="#d4e5f5"></stop><stop offset="1.0" stop-color="#0b5394"></stop></linearGradient></defs><path fill="url(#p.1)" d="m-7.2913384 -11.220472l229.5748 0l0 233.19685l-229.5748 0z" fill-rule="evenodd"></path><g filter="url(#shadowFilter-p.2)"><use xlink:href="#p.2" transform="matrix(1.0 0.0 0.0 1.0 0.0 2.0)"></use></g><defs><filter id="shadowFilter-p.2" filterUnits="userSpaceOnUse"><feGaussianBlur in="SourceAlpha" stdDeviation="2.0" result="blur"></feGaussianBlur><feComponentTransfer in="blur" color-interpolation-filters="sRGB"><feFuncR type="linear" slope="0" intercept="0.0"></feFuncR><feFuncG type="linear" slope="0" intercept="0.0"></feFuncG><feFuncB type="linear" slope="0" intercept="0.0"></feFuncB><feFuncA type="linear" slope="0.5" intercept="0"></feFuncA></feComponentTransfer></filter></defs><g id="p.2"><defs><radialGradient id="p.3" gradientUnits="userSpaceOnUse" gradientTransform="matrix(4.859606855422838 0.6735244586352339 -0.6735244586352339 4.859606855422838 0.0 0.0)" spreadMethod="pad" cx="12.256803188159765" cy="24.77342986819104" fx="12.256803188159765" fy="24.77342986819104" r="4.859606742858887"><stop offset="0.0" stop-color="#bfbfbf"></stop><stop offset="1.0" stop-color="#737373"></stop></radialGradient></defs><path fill="url(#p.3)" d="m36.510765 108.550026l0 0c0.22876358 -1.6525726 1.7538605 -2.8065796 3.4063988 -2.5775452l11.968384 1.6587753l0 0c0.7935791 0.10998535 1.511013 0.5307236 1.9944763 1.1696548c0.4834633 0.63892365 0.69335175 1.4437103 0.5834961 2.2373047l-5.2188187 37.700523c-0.22876358 1.6525879 -1.7538605 2.8065948 -3.4063988 2.5775604l-11.968384 -1.658783c-1.6525383 -0.22903442 -2.806736 -1.7543793 -2.5779724 -3.406952z" fill-rule="evenodd"></path><path stroke="#000000" stroke-width="3.0" stroke-linejoin="round" stroke-linecap="butt" d="m36.510765 108.550026l0 0c0.22876358 -1.6525726 1.7538605 -2.8065796 3.4063988 -2.5775452l11.968384 1.6587753l0 0c0.7935791 0.10998535 1.511013 0.5307236 1.9944763 1.1696548c0.4834633 0.63892365 0.69335175 1.4437103 0.5834961 2.2373047l-5.2188187 37.700523c-0.22876358 1.6525879 -1.7538605 2.8065948 -3.4063988 2.5775604l-11.968384 -1.658783c-1.6525383 -0.22903442 -2.806736 -1.7543793 -2.5779724 -3.406952z" fill-rule="evenodd"></path></g><g filter="url(#shadowFilter-p.4)"><use xlink:href="#p.4" transform="matrix(1.0 0.0 0.0 1.0 0.0 2.0)"></use></g><defs><filter id="shadowFilter-p.4" filterUnits="userSpaceOnUse"><feGaussianBlur in="SourceAlpha" stdDeviation="2.0" result="blur"></feGaussianBlur><feComponentTransfer in="blur" color-interpolation-filters="sRGB"><feFuncR type="linear" slope="0" intercept="0.0"></feFuncR><feFuncG type="linear" slope="0" intercept="0.0"></feFuncG><feFuncB type="linear" slope="0" intercept="0.0"></feFuncB><feFuncA type="linear" slope="0.5" intercept="0"></feFuncA></feComponentTransfer></filter></defs><g id="p.4"><defs><radialGradient id="p.5" gradientUnits="userSpaceOnUse" gradientTransform="matrix(4.859606855422838 0.6735244586352339 -0.6735244586352339 4.859606855422838 0.0 0.0)" spreadMethod="pad" cx="37.72658642212825" cy="24.761113075002815" fx="37.72658642212825" fy="24.761113075002815" r="4.859606742858887"><stop offset="0.0" stop-color="#bfbfbf"></stop><stop offset="1.0" stop-color="#737373"></stop></radialGradient></defs><path fill="url(#p.5)" d="m160.29219 125.64469l0 0c0.22875977 -1.6525726 1.7538605 -2.8065796 3.4064026 -2.5775452l11.968384 1.6587753l0 0c0.7935791 0.10998535 1.5110168 0.5307236 1.9944763 1.1696548c0.48345947 0.63892365 0.6933594 1.4437103 0.5834961 2.2373123l-5.218811 37.70053c-0.22877502 1.6525726 -1.7538605 2.8065796 -3.4064026 2.5775452l-11.968384 -1.658783c-1.6525421 -0.22903442 -2.8067474 -1.7543793 -2.5779724 -3.406952z" fill-rule="evenodd"></path><path stroke="#000000" stroke-width="3.0" stroke-linejoin="round" stroke-linecap="butt" d="m160.29219 125.64469l0 0c0.22875977 -1.6525726 1.7538605 -2.8065796 3.4064026 -2.5775452l11.968384 1.6587753l0 0c0.7935791 0.10998535 1.5110168 0.5307236 1.9944763 1.1696548c0.48345947 0.63892365 0.6933594 1.4437103 0.5834961 2.2373123l-5.218811 37.70053c-0.22877502 1.6525726 -1.7538605 2.8065796 -3.4064026 2.5775452l-11.968384 -1.658783c-1.6525421 -0.22903442 -2.8067474 -1.7543793 -2.5779724 -3.406952z" fill-rule="evenodd"></path></g><g filter="url(#shadowFilter-p.6)"><use xlink:href="#p.6" transform="matrix(1.0 0.0 0.0 1.0 0.0 2.0)"></use></g><defs><filter id="shadowFilter-p.6" filterUnits="userSpaceOnUse"><feGaussianBlur in="SourceAlpha" stdDeviation="2.0" result="blur"></feGaussianBlur><feComponentTransfer in="blur" color-interpolation-filters="sRGB"><feFuncR type="linear" slope="0" intercept="0.0"></feFuncR><feFuncG type="linear" slope="0" intercept="0.0"></feFuncG><feFuncB type="linear" slope="0" intercept="0.0"></feFuncB><feFuncA type="linear" slope="0.5" intercept="0"></feFuncA></feComponentTransfer></filter></defs><g id="p.6"><defs><radialGradient id="p.7" gradientUnits="userSpaceOnUse" gradientTransform="matrix(3.578514686670672 0.49596957940711695 -0.49596957940711695 3.578514686670672 0.0 0.0)" spreadMethod="pad" cx="17.505514226205307" cy="8.028022573591839" fx="17.505514226205307" fy="8.028022573591839" r="3.578514575958252"><stop offset="0.0" stop-color="#ffffff"></stop><stop offset="1.0" stop-color="#b3b3b3"></stop></radialGradient></defs><path fill="url(#p.7)" d="m49.685707 36.166504l0 0c0.69579315 -5.044489 5.278702 -8.576857 10.236221 -7.889763l0 0c2.380684 0.32995415 4.531128 1.6087093 5.978256 3.5549526c1.4471359 1.9462452 2.0724106 4.400549 1.7382812 6.823l0 0c-0.69579315 5.044491 -5.2787056 8.5768585 -10.236225 7.889763l0 0c-4.9575157 -0.6870918 -8.412327 -5.3334618 -7.7165337 -10.377953z" fill-rule="evenodd"></path><path stroke="#000000" stroke-width="2.0" stroke-linejoin="round" stroke-linecap="butt" d="m49.685707 36.166504l0 0c0.69579315 -5.044489 5.278702 -8.576857 10.236221 -7.889763l0 0c2.380684 0.32995415 4.531128 1.6087093 5.978256 3.5549526c1.4471359 1.9462452 2.0724106 4.400549 1.7382812 6.823l0 0c-0.69579315 5.044491 -5.2787056 8.5768585 -10.236225 7.889763l0 0c-4.9575157 -0.6870918 -8.412327 -5.3334618 -7.7165337 -10.377953z" fill-rule="evenodd"></path></g><g filter="url(#shadowFilter-p.8)"><use xlink:href="#p.8" transform="matrix(1.0 0.0 0.0 1.0 0.0 2.0)"></use></g><defs><filter id="shadowFilter-p.8" filterUnits="userSpaceOnUse"><feGaussianBlur in="SourceAlpha" stdDeviation="2.0" result="blur"></feGaussianBlur><feComponentTransfer in="blur" color-interpolation-filters="sRGB"><feFuncR type="linear" slope="0" intercept="0.0"></feFuncR><feFuncG type="linear" slope="0" intercept="0.0"></feFuncG><feFuncB type="linear" slope="0" intercept="0.0"></feFuncB><feFuncA type="linear" slope="0.5" intercept="0"></feFuncA></feComponentTransfer></filter></defs><g id="p.8"><defs><radialGradient id="p.9" gradientUnits="userSpaceOnUse" gradientTransform="matrix(3.578514686670672 0.49596957940711695 -0.49596957940711695 3.578514686670672 0.0 0.0)" spreadMethod="pad" cx="49.6998691276262" cy="8.010306920336564" fx="49.6998691276262" fy="8.010306920336564" r="3.578514575958252"><stop offset="0.0" stop-color="#ffffff"></stop><stop offset="1.0" stop-color="#b3b3b3"></stop></radialGradient></defs><path fill="url(#p.9)" d="m164.90247 52.07053l0 0c0.6957855 -5.044491 5.278702 -8.5768585 10.236221 -7.889763l0 0c2.3806763 0.32995224 4.531128 1.6087074 5.978256 3.5549507c1.4471283 1.9462433 2.072403 4.400551 1.7382812 6.823002l0 0c-0.6958008 5.044491 -5.278702 8.5768585 -10.236221 7.889763l0 0c-4.9575195 -0.68709564 -8.412323 -5.3334618 -7.7165375 -10.377953z" fill-rule="evenodd"></path><path stroke="#000000" stroke-width="2.0" stroke-linejoin="round" stroke-linecap="butt" d="m164.90247 52.07053l0 0c0.6957855 -5.044491 5.278702 -8.5768585 10.236221 -7.889763l0 0c2.3806763 0.32995224 4.531128 1.6087074 5.978256 3.5549507c1.4471283 1.9462433 2.072403 4.400551 1.7382812 6.823002l0 0c-0.6958008 5.044491 -5.278702 8.5768585 -10.236221 7.889763l0 0c-4.9575195 -0.68709564 -8.412323 -5.3334618 -7.7165375 -10.377953z" fill-rule="evenodd"></path></g><g filter="url(#shadowFilter-p.10)"><use xlink:href="#p.10" transform="matrix(1.0 0.0 0.0 1.0 0.0 2.0)"></use></g><defs><filter id="shadowFilter-p.10" filterUnits="userSpaceOnUse"><feGaussianBlur in="SourceAlpha" stdDeviation="2.0" result="blur"></feGaussianBlur><feComponentTransfer in="blur" color-interpolation-filters="sRGB"><feFuncR type="linear" slope="0" intercept="0.0"></feFuncR><feFuncG type="linear" slope="0" intercept="0.0"></feFuncG><feFuncB type="linear" slope="0" intercept="0.0"></feFuncB><feFuncA type="linear" slope="0.5" intercept="0"></feFuncA></feComponentTransfer></filter></defs><g id="p.10"><path fill="#000000" fill-opacity="0.0" d="m57.40224 46.544456l-11.496063 60.25197" fill-rule="evenodd"></path><path stroke="#000000" stroke-width="3.0" stroke-linejoin="round" stroke-linecap="butt" d="m57.40224 46.544456l-11.496063 60.25197" fill-rule="evenodd"></path></g><g filter="url(#shadowFilter-p.11)"><use xlink:href="#p.11" transform="matrix(1.0 0.0 0.0 1.0 0.0 2.0)"></use></g><defs><filter id="shadowFilter-p.11" filterUnits="userSpaceOnUse"><feGaussianBlur in="SourceAlpha" stdDeviation="2.0" result="blur"></feGaussianBlur><feComponentTransfer in="blur" color-interpolation-filters="sRGB"><feFuncR type="linear" slope="0" intercept="0.0"></feFuncR><feFuncG type="linear" slope="0" intercept="0.0"></feFuncG><feFuncB type="linear" slope="0" intercept="0.0"></feFuncB><feFuncA type="linear" slope="0.5" intercept="0"></feFuncA></feComponentTransfer></filter></defs><g id="p.11"><path fill="#000000" fill-opacity="0.0" d="m172.619 62.448483l-2.9291382 61.44882" fill-rule="evenodd"></path><path stroke="#000000" stroke-width="3.0" stroke-linejoin="round" stroke-linecap="butt" d="m172.619 62.448483l-2.9291382 61.44882" fill-rule="evenodd"></path></g><g filter="url(#shadowFilter-p.12)"><use xlink:href="#p.12" transform="matrix(1.0 0.0 0.0 1.0 0.0 2.0)"></use></g><defs><filter id="shadowFilter-p.12" filterUnits="userSpaceOnUse"><feGaussianBlur in="SourceAlpha" stdDeviation="2.0" result="blur"></feGaussianBlur><feComponentTransfer in="blur" color-interpolation-filters="sRGB"><feFuncR type="linear" slope="0" intercept="0.0"></feFuncR><feFuncG type="linear" slope="0" intercept="0.0"></feFuncG><feFuncB type="linear" slope="0" intercept="0.0"></feFuncB><feFuncA type="linear" slope="0.5" intercept="0"></feFuncA></feComponentTransfer></filter></defs><g id="p.12"><defs><radialGradient id="p.13" gradientUnits="userSpaceOnUse" gradientTransform="matrix(8.221447571532027 1.136011986317022 -1.136011986317022 8.221447571532027 0.0 0.0)" spreadMethod="pad" cx="14.765865219210697" cy="14.646115821249904" fx="14.765865219210697" fy="14.646115821249904" r="8.221447944641113"><stop offset="0.0" stop-color="#f2f2f2"></stop><stop offset="1.0" stop-color="#a6a6a6"></stop></radialGradient></defs><path fill="url(#p.13)" d="m53.06305 103.61718l0 0c0.9886246 -7.161003 7.595104 -12.164017 14.755989 -11.174553l84.61933 11.692413c3.4387665 0.4751587 6.548111 2.2969284 8.643997 5.064537c2.095871 2.7676163 3.0066223 6.2543564 2.5318604 9.693192l-7.160034 51.863c-0.98861694 7.1609955 -7.595108 12.164017 -14.755981 11.174545l-84.61933 -11.692413c-7.160881 -0.9894562 -12.16449 -7.5967255 -11.175865 -14.757721z" fill-rule="evenodd"></path><path stroke="#000000" stroke-width="3.0" stroke-linejoin="round" stroke-linecap="butt" d="m53.06305 103.61718l0 0c0.9886246 -7.161003 7.595104 -12.164017 14.755989 -11.174553l84.61933 11.692413c3.4387665 0.4751587 6.548111 2.2969284 8.643997 5.064537c2.095871 2.7676163 3.0066223 6.2543564 2.5318604 9.693192l-7.160034 51.863c-0.98861694 7.1609955 -7.595108 12.164017 -14.755981 11.174545l-84.61933 -11.692413c-7.160881 -0.9894562 -12.16449 -7.5967255 -11.175865 -14.757721z" fill-rule="evenodd"></path></g></g></svg>

